<svg xmlns="http://www.w3.org/2000/svg" width="32.063" height="32.063" viewBox="0 0 32.063 32.063">
  <defs>
    <style>
      .cls-1 {
        fill: #ef9c05;
        fill-rule: evenodd;
      }
    </style>
  </defs>
  <path id="Pencil" class="cls-1" d="M1,32.078a1.013,1.013,0,0,1-.714-0.3,1.03,1.03,0,0,1-.256-1.029c0.022-.072,2.193-7.18,2.627-8.782a1.032,1.032,0,0,1,.264-0.456S22.141,2.287,22.7,1.729A5.8,5.8,0,0,1,26.574.036a5.1,5.1,0,0,1,3.575,1.573,5.4,5.4,0,0,1,1.9,3.776A5.532,5.532,0,0,1,30.23,9.311c-1.19,1.229-19.118,18.958-19.881,19.712a1.011,1.011,0,0,1-.423.251c-1.208.36-8.544,2.732-8.618,2.756A1.011,1.011,0,0,1,1,32.078Zm3.541-9.3c-0.378,1.345-1.5,4.741-2.14,6.836,2.109-.68,5.543-1.87,6.707-2.228,1.917-1.9,18.559-18.356,19.673-19.5a3.608,3.608,0,0,0,1.24-2.459,3.464,3.464,0,0,0-1.27-2.331,3.158,3.158,0,0,0-2.175-1.009,3.874,3.874,0,0,0-2.447,1.105C23.6,3.713,6.536,20.78,4.539,22.778Zm5.375,6.18a1.018,1.018,0,0,1-1.005-.894,6.065,6.065,0,0,0-1.651-3.078,5.992,5.992,0,0,0-3.193-1.815,1.025,1.025,0,0,1-.887-1.134,1.011,1.011,0,0,1,1.111-.9,7.973,7.973,0,0,1,4.4,2.4,8.031,8.031,0,0,1,2.229,4.267A1.015,1.015,0,0,1,9.914,28.958ZM27.98,10.663a1.018,1.018,0,0,1-1.006-.894,6.061,6.061,0,0,0-1.65-3.077,5.991,5.991,0,0,0-3.193-1.816,1.024,1.024,0,0,1-.886-1.133,1.007,1.007,0,0,1,1.111-.9,7.971,7.971,0,0,1,4.4,2.4,8.039,8.039,0,0,1,2.229,4.265,1.022,1.022,0,0,1-.879,1.144A1.062,1.062,0,0,1,27.98,10.663Z" transform="translate(0 -0.031)"/>
</svg>
